<svg xmlns="http://www.w3.org/2000/svg" xmlns:xlink="http://www.w3.org/1999/xlink" id="processonSvg1000" viewBox="111.0 102.0 710.0 303.0" width="710.0" height="303.0"><defs id="ProcessOnDefs1001"><marker id="ProcessOnMarker1042" markerUnits="userSpaceOnUse" orient="auto" markerWidth="16.23606797749979" markerHeight="10.550836550532098" viewBox="-1.0 -1.3763819204711736 16.23606797749979 10.550836550532098" refX="-1.0" refY="3.8990363547948754"><path id="ProcessOnPath1043" d="M12.0 3.8990363547948754L0.0 7.798072709589751V0.0Z" stroke="#323232" stroke-width="2.0" fill="#323232" transform="matrix(1.0,0.0,0.0,1.0,0.0,0.0)"/></marker><marker id="ProcessOnMarker1046" markerUnits="userSpaceOnUse" orient="auto" markerWidth="16.23606797749979" markerHeight="10.550836550532098" viewBox="-1.0 -1.3763819204711736 16.23606797749979 10.550836550532098" refX="-1.0" refY="3.8990363547948754"><path id="ProcessOnPath1047" d="M12.0 3.8990363547948754L0.0 7.798072709589751V0.0Z" stroke="#323232" stroke-width="2.0" fill="#323232" transform="matrix(1.0,0.0,0.0,1.0,0.0,0.0)"/></marker><marker id="ProcessOnMarker1050" markerUnits="userSpaceOnUse" orient="auto" markerWidth="16.23606797749979" markerHeight="10.550836550532098" viewBox="-1.0 -1.3763819204711736 16.23606797749979 10.550836550532098" refX="-1.0" refY="3.8990363547948754"><path id="ProcessOnPath1051" d="M12.0 3.8990363547948754L0.0 7.798072709589751V0.0Z" stroke="#323232" stroke-width="2.0" fill="#323232" transform="matrix(1.0,0.0,0.0,1.0,0.0,0.0)"/></marker><marker id="ProcessOnMarker1064" markerUnits="userSpaceOnUse" orient="auto" markerWidth="16.23606797749979" markerHeight="10.550836550532098" viewBox="-1.0 -1.3763819204711736 16.23606797749979 10.550836550532098" refX="-1.0" refY="3.8990363547948754"><path id="ProcessOnPath1065" d="M12.0 3.8990363547948754L0.0 7.798072709589751V0.0Z" stroke="#323232" stroke-width="2.0" fill="#323232" transform="matrix(1.0,0.0,0.0,1.0,0.0,0.0)"/></marker><marker id="ProcessOnMarker1072" markerUnits="userSpaceOnUse" orient="auto" markerWidth="16.23606797749979" markerHeight="10.550836550532098" viewBox="-1.0 -1.3763819204711736 16.23606797749979 10.550836550532098" refX="-1.0" refY="3.8990363547948754"><path id="ProcessOnPath1073" d="M12.0 3.8990363547948754L0.0 7.798072709589751V0.0Z" stroke="#323232" stroke-width="2.0" fill="#323232" transform="matrix(1.0,0.0,0.0,1.0,0.0,0.0)"/></marker></defs><g id="ProcessOnG1002"><path id="ProcessOnPath1003" d="M111.0 102.0H821.0V405.0H111.0V102.0Z" fill="none"/><g id="ProcessOnG1004"><g id="ProcessOnG1005" transform="matrix(1.0,0.0,0.0,1.0,588.5,188.0)" opacity="1.0"><path id="ProcessOnPath1006" d="M0.0 0.0L84.0 0.0L84.0 20.0L0.0 20.0Z" stroke="#323232" stroke-width="2.0" stroke-dasharray="none" opacity="1.0" fill="#ffffff"/><g id="ProcessOnG1007" transform="matrix(1.0,0.0,0.0,1.0,10.0,1.875)"><text id="ProcessOnText1008" fill="#000000" font-size="13" x="31.0" y="13.325" font-family="微软雅黑" font-weight="normal" font-style="normal" text-decoration="none" family="微软雅黑" text-anchor="middle" size="13">输出设备</text></g></g><g id="ProcessOnG1009" transform="matrix(1.0,0.0,0.0,1.0,266.0,184.0)" opacity="1.0"><path id="ProcessOnPath1010" d="M0.0 0.0L88.0 0.0L88.0 28.0L0.0 28.0Z" stroke="#323232" stroke-width="2.0" stroke-dasharray="none" opacity="1.0" fill="#ffffff"/><g id="ProcessOnG1011" transform="matrix(1.0,0.0,0.0,1.0,10.0,5.875)"><text id="ProcessOnText1012" fill="#000000" font-size="13" x="33.0" y="13.325" font-family="微软雅黑" font-weight="normal" font-style="normal" text-decoration="none" family="微软雅黑" text-anchor="middle" size="13">输入设备</text></g></g><g id="ProcessOnG1013" transform="matrix(1.0,0.0,0.0,1.0,425.0,185.5)" opacity="1.0"><path id="ProcessOnPath1014" d="M0.0 0.0L91.0 0.0L91.0 25.0L0.0 25.0Z" stroke="#323232" stroke-width="2.0" stroke-dasharray="none" opacity="1.0" fill="#ffffff"/><g id="ProcessOnG1015" transform="matrix(1.0,0.0,0.0,1.0,10.0,4.375)"><text id="ProcessOnText1016" fill="#000000" font-size="13" x="34.5" y="13.325" font-family="微软雅黑" font-weight="normal" font-style="normal" text-decoration="none" family="微软雅黑" text-anchor="middle" size="13">存储器</text></g></g><g id="ProcessOnG1017" transform="matrix(1.0,0.0,0.0,1.0,420.5,122.0)" opacity="1.0"><path id="ProcessOnPath1018" d="M0.0 0.0L100.0 0.0L100.0 25.0L0.0 25.0Z" stroke="#323232" stroke-width="2.0" stroke-dasharray="none" opacity="1.0" fill="#ffffff"/><g id="ProcessOnG1019" transform="matrix(1.0,0.0,0.0,1.0,10.0,4.375)"><text id="ProcessOnText1020" fill="#000000" font-size="13" x="39.0" y="13.325" font-family="微软雅黑" font-weight="normal" font-style="normal" text-decoration="none" family="微软雅黑" text-anchor="middle" size="13">运算器</text></g></g><g id="ProcessOnG1021" transform="matrix(1.0,0.0,0.0,1.0,420.5,254.0)" opacity="1.0"><path id="ProcessOnPath1022" d="M0.0 0.0L100.0 0.0L100.0 25.0L0.0 25.0Z" stroke="#323232" stroke-width="2.0" stroke-dasharray="none" opacity="1.0" fill="#ffffff"/><g id="ProcessOnG1023" transform="matrix(1.0,0.0,0.0,1.0,10.0,4.375)"><text id="ProcessOnText1024" fill="#000000" font-size="13" x="39.0" y="13.325" font-family="微软雅黑" font-weight="normal" font-style="normal" text-decoration="none" family="微软雅黑" text-anchor="middle" size="13">控制器</text></g></g><g id="ProcessOnG1025" transform="matrix(1.0,0.0,0.0,1.0,460.5,147.0)" opacity="1.0"><path id="ProcessOnPath1026" d="M10.0 0.0L20.0 10.0L13.4 10.0L13.4 28.5L20.0 28.5L10.0 38.5L0.0 28.5L6.6000000000000005 28.5L6.6000000000000005 10.0L0.0 10.0L10.0 0.0Z" stroke="#323232" stroke-width="2.0" stroke-dasharray="none" opacity="1.0" fill="#ffffff"/></g><g id="ProcessOnG1027" transform="matrix(1.0,0.0,0.0,1.0,490.0,211.0)" opacity="1.0"><path id="ProcessOnPath1028" d="M6.6000000000000005 0.0L13.4 0.0L13.4 33.0L20.0 33.0L10.0 43.0L0.0 33.0L6.6000000000000005 33.0L6.6000000000000005 0.0Z" stroke="#323232" stroke-width="2.0" stroke-dasharray="none" opacity="1.0" fill="#ffffff"/></g><g id="ProcessOnG1029" transform="matrix(1.0,0.0,0.0,1.0,354.0,188.0)" opacity="1.0"><path id="ProcessOnPath1030" d="M0.0 6.6000000000000005L61.0 6.6000000000000005L61.0 0.0L71.0 10.0L61.0 20.0L61.0 13.4L0.0 13.4L0.0 6.6000000000000005Z" stroke="#323232" stroke-width="2.0" stroke-dasharray="none" opacity="1.0" fill="#ffffff"/></g><g id="ProcessOnG1031" transform="matrix(1.0,0.0,0.0,1.0,516.0,188.0)" opacity="1.0"><path id="ProcessOnPath1032" d="M0.0 7.590000000000001L61.0 7.590000000000001L61.0 0.0L72.5 11.5L61.0 23.0L61.0 15.41L0.0 15.41L0.0 7.590000000000001Z" stroke="#323232" stroke-width="2.0" stroke-dasharray="none" opacity="1.0" fill="#ffffff"/></g><g id="ProcessOnG1033" transform="matrix(6.123233995736766E-17,1.0,-1.0,6.123233995736766E-17,546.5,130.75)" opacity="1.0"><path id="ProcessOnPath1034" d="M0.0 9.8Q0.0 0.0 9.8 0.0L125.94000000000001 0.0Q135.74 0.0 135.74 9.8L135.74 19.6L154.25 19.6L132.6775 24.5L111.105 19.6L129.615 19.6L129.615 9.8Q129.615 6.125 106.4775 6.125L29.2625 6.125Q6.125 6.125 6.125 9.8L6.125 24.5L0.0 24.5L0.0 9.8Z" stroke="#323232" stroke-width="2.0" stroke-dasharray="none" opacity="1.0" fill="#ffffff"/><path id="ProcessOnPath1035" d="M0.0 0.0L154.25 0.0L154.25 24.5L0.0 24.5Z" stroke="none" stroke-width="0.0" stroke-dasharray="none" opacity="1.0" fill="none"/></g><g id="ProcessOnG1036" transform="matrix(1.0,0.0,0.0,1.0,211.0,188.0)" opacity="1.0"><path id="ProcessOnPath1037" d="M0.0 6.6000000000000005L45.0 6.6000000000000005L45.0 0.0L55.0 10.0L45.0 20.0L45.0 13.4L0.0 13.4L0.0 6.6000000000000005Z" stroke="#323232" stroke-width="2.0" stroke-dasharray="none" opacity="1.0" fill="#ffffff"/></g><g id="ProcessOnG1038" transform="matrix(1.0,0.0,0.0,1.0,672.5,188.0)" opacity="1.0"><path id="ProcessOnPath1039" d="M0.0 6.6000000000000005L51.0 6.6000000000000005L51.0 0.0L61.0 10.0L51.0 20.0L51.0 13.4L0.0 13.4L0.0 6.6000000000000005Z" stroke="#323232" stroke-width="2.0" stroke-dasharray="none" opacity="1.0" fill="#ffffff"/></g><g id="ProcessOnG1040"><path id="ProcessOnPath1041" d="M470.5 254.0L470.5 241.0L441.0 241.0L441.0 225.2360679774998" stroke="#323232" stroke-width="2.0" stroke-dasharray="none" fill="none" marker-end="url(#ProcessOnMarker1042)"/></g><g id="ProcessOnG1044"><path id="ProcessOnPath1045" d="M420.5 266.5L310.0 266.5L310.0 227.2360679774998" stroke="#323232" stroke-width="2.0" stroke-dasharray="none" fill="none" marker-end="url(#ProcessOnMarker1046)"/></g><g id="ProcessOnG1048"><path id="ProcessOnPath1049" d="M420.5 266.5L390.5 266.5L390.5 134.5L405.2639320225002 134.5" stroke="#323232" stroke-width="2.0" stroke-dasharray="none" fill="none" marker-end="url(#ProcessOnMarker1050)"/></g><g id="ProcessOnG1052" transform="matrix(1.0,0.0,0.0,1.0,627.0,325.0)" opacity="1.0"><path id="ProcessOnPath1053" d="M0.0 6.6000000000000005L43.0 6.6000000000000005L43.0 0.0L53.0 10.0L43.0 20.0L43.0 13.4L0.0 13.4L0.0 6.6000000000000005Z" stroke="#323232" stroke-width="2.0" stroke-dasharray="none" opacity="1.0" fill="#ffffff"/></g><g id="ProcessOnG1054" transform="matrix(1.0,0.0,0.0,1.0,131.0,155.625)" opacity="1.0"><path id="ProcessOnPath1055" d="M0.0 0.0L160.0 0.0L160.0 40.0L0.0 40.0Z" stroke="none" stroke-width="0.0" stroke-dasharray="none" opacity="1.0" fill="none"/><g id="ProcessOnG1056" transform="matrix(1.0,0.0,0.0,1.0,0.0,11.875)"><text id="ProcessOnText1057" fill="#000000" font-size="13" x="79.0" y="13.325" font-family="微软雅黑" font-weight="normal" font-style="normal" text-decoration="none" family="微软雅黑" text-anchor="middle" size="13">程序和数据</text></g></g><g id="ProcessOnG1058" transform="matrix(1.0,0.0,0.0,1.0,641.0,155.625)" opacity="1.0"><path id="ProcessOnPath1059" d="M0.0 0.0L160.0 0.0L160.0 40.0L0.0 40.0Z" stroke="none" stroke-width="0.0" stroke-dasharray="none" opacity="1.0" fill="none"/><g id="ProcessOnG1060" transform="matrix(1.0,0.0,0.0,1.0,0.0,11.875)"><text id="ProcessOnText1061" fill="#000000" font-size="13" x="79.0" y="13.325" font-family="微软雅黑" font-weight="normal" font-style="normal" text-decoration="none" family="微软雅黑" text-anchor="middle" size="13">计算结果</text></g></g><g id="ProcessOnG1062"><path id="ProcessOnPath1063" d="M522.0 267.0L582.0 267.0L582.0 267.125L630.5 267.125L630.5 223.2360679774998" stroke="#323232" stroke-width="2.0" stroke-dasharray="none" fill="none" marker-end="url(#ProcessOnMarker1064)"/></g><g id="ProcessOnG1066" transform="matrix(1.0,0.0,0.0,1.0,636.0,315.0)" opacity="1.0"><path id="ProcessOnPath1067" d="M0.0 0.0L160.0 0.0L160.0 40.0L0.0 40.0Z" stroke="none" stroke-width="0.0" stroke-dasharray="none" opacity="1.0" fill="none"/><g id="ProcessOnG1068" transform="matrix(1.0,0.0,0.0,1.0,0.0,11.875)"><text id="ProcessOnText1069" fill="#000000" font-size="13" x="79.0" y="13.325" font-family="微软雅黑" font-weight="normal" font-style="normal" text-decoration="none" family="微软雅黑" text-anchor="middle" size="13">数据流</text></g></g><g id="ProcessOnG1070"><path id="ProcessOnPath1071" d="M633.8126155740733 366.8452365234814L603.8126155740733 366.8452365234814L603.8126155740733 366.8452365234814L662.7639320225002 366.8452365234814" stroke="#323232" stroke-width="2.0" stroke-dasharray="none" fill="none" marker-end="url(#ProcessOnMarker1072)"/></g><g id="ProcessOnG1074" transform="matrix(1.0,0.0,0.0,1.0,636.0,345.0)" opacity="1.0"><path id="ProcessOnPath1075" d="M0.0 0.0L160.0 0.0L160.0 40.0L0.0 40.0Z" stroke="none" stroke-width="0.0" stroke-dasharray="none" opacity="1.0" fill="none"/><g id="ProcessOnG1076" transform="matrix(1.0,0.0,0.0,1.0,0.0,11.875)"><text id="ProcessOnText1077" fill="#000000" font-size="13" x="79.0" y="13.325" font-family="微软雅黑" font-weight="normal" font-style="normal" text-decoration="none" family="微软雅黑" text-anchor="middle" size="13">控制流</text></g></g><g id="ProcessOnG1078" transform="matrix(1.0,0.0,0.0,1.0,257.0,325.0)" opacity="1.0"><path id="ProcessOnPath1079" d="M0.0 0.0L259.0 0.0L259.0 50.0L0.0 50.0Z" stroke="none" stroke-width="0.0" stroke-dasharray="none" opacity="1.0" fill="none"/><g id="ProcessOnG1080" transform="matrix(1.0,0.0,0.0,1.0,0.0,13.125)"><text id="ProcessOnText1081" fill="#000000" font-size="19" x="128.5" y="19.475" font-family="微软雅黑" font-weight="bold" font-style="italic" text-decoration="none" family="微软雅黑" text-anchor="middle" size="19">von Neumann architecture</text></g></g></g></g></svg>