<svg xmlns="http://www.w3.org/2000/svg" xmlns:xlink="http://www.w3.org/1999/xlink" id="processonSvg1000" viewBox="61.0 156.0 702.0 258.0" width="702.0" height="258.0"><defs id="ProcessOnDefs1001"><marker id="ProcessOnMarker1027" markerUnits="userSpaceOnUse" orient="auto" markerWidth="16.23606797749979" markerHeight="10.550836550532098" viewBox="-1.0 -1.3763819204711736 16.23606797749979 10.550836550532098" refX="-1.0" refY="3.8990363547948754"><path id="ProcessOnPath1028" d="M12.0 3.8990363547948754L0.0 7.798072709589751V0.0Z" stroke="#323232" stroke-width="2.0" fill="#323232" transform="matrix(1.0,0.0,0.0,1.0,0.0,0.0)"/></marker><marker id="ProcessOnMarker1031" markerUnits="userSpaceOnUse" orient="auto" markerWidth="16.23606797749979" markerHeight="10.550836550532098" viewBox="-1.0 -1.3763819204711736 16.23606797749979 10.550836550532098" refX="-1.0" refY="3.8990363547948754"><path id="ProcessOnPath1032" d="M12.0 3.8990363547948754L0.0 7.798072709589751V0.0Z" stroke="#323232" stroke-width="2.0" fill="#323232" transform="matrix(1.0,0.0,0.0,1.0,0.0,0.0)"/></marker><marker id="ProcessOnMarker1035" markerUnits="userSpaceOnUse" orient="auto" markerWidth="16.23606797749979" markerHeight="10.550836550532098" viewBox="-1.0 -1.3763819204711736 16.23606797749979 10.550836550532098" refX="-1.0" refY="3.8990363547948754"><path id="ProcessOnPath1036" d="M12.0 3.8990363547948754L0.0 7.798072709589751V0.0Z" stroke="#323232" stroke-width="2.0" fill="#323232" transform="matrix(1.0,0.0,0.0,1.0,0.0,0.0)"/></marker><marker id="ProcessOnMarker1039" markerUnits="userSpaceOnUse" orient="auto" markerWidth="16.23606797749979" markerHeight="10.550836550532098" viewBox="-1.0 -1.3763819204711736 16.23606797749979 10.550836550532098" refX="-1.0" refY="3.8990363547948754"><path id="ProcessOnPath1040" d="M12.0 3.8990363547948754L0.0 7.798072709589751V0.0Z" stroke="#323232" stroke-width="2.0" fill="#323232" transform="matrix(1.0,0.0,0.0,1.0,0.0,0.0)"/></marker></defs><g id="ProcessOnG1002"><path id="ProcessOnPath1003" d="M61.0 156.0H763.0V414.0H61.0V156.0Z" fill="none"/><g id="ProcessOnG1004"><g id="ProcessOnG1005" transform="matrix(1.0,0.0,0.0,1.0,81.0,176.0)" opacity="1.0"><path id="ProcessOnPath1006" d="M0.0 0.0L100.0 0.0L100.0 70.0L0.0 70.0Z" stroke="#323232" stroke-width="2.0" stroke-dasharray="none" opacity="1.0" fill="#ffffff"/><g id="ProcessOnG1007" transform="matrix(1.0,0.0,0.0,1.0,10.0,26.875)"><text id="ProcessOnText1008" fill="#000000" font-size="13" x="39.0" y="13.325" font-family="微软雅黑" font-weight="normal" font-style="normal" text-decoration="none" family="微软雅黑" text-anchor="middle" size="13">第一代计算机</text></g></g><g id="ProcessOnG1009" transform="matrix(1.0,0.0,0.0,1.0,218.0,176.0)" opacity="1.0"><path id="ProcessOnPath1010" d="M0.0 0.0L100.0 0.0L100.0 70.0L0.0 70.0Z" stroke="#323232" stroke-width="2.0" stroke-dasharray="none" opacity="1.0" fill="#ffffff"/><g id="ProcessOnG1011" transform="matrix(1.0,0.0,0.0,1.0,10.0,26.875)"><text id="ProcessOnText1012" fill="#000000" font-size="13" x="39.0" y="13.325" font-family="微软雅黑" font-weight="normal" font-style="normal" text-decoration="none" family="微软雅黑" text-anchor="middle" size="13">第二代计算机</text></g></g><g id="ProcessOnG1013" transform="matrix(1.0,0.0,0.0,1.0,605.0,176.0)" opacity="1.0"><path id="ProcessOnPath1014" d="M0.0 0.0L100.0 0.0L100.0 70.0L0.0 70.0Z" stroke="#323232" stroke-width="2.0" stroke-dasharray="none" opacity="1.0" fill="#ffffff"/><g id="ProcessOnG1015" transform="matrix(1.0,0.0,0.0,1.0,10.0,26.875)"><text id="ProcessOnText1016" fill="#000000" font-size="13" x="39.0" y="13.325" font-family="微软雅黑" font-weight="normal" font-style="normal" text-decoration="none" family="微软雅黑" text-anchor="middle" size="13">第五代计算机</text></g></g><g id="ProcessOnG1017" transform="matrix(1.0,0.0,0.0,1.0,473.0,176.0)" opacity="1.0"><path id="ProcessOnPath1018" d="M0.0 0.0L100.0 0.0L100.0 70.0L0.0 70.0Z" stroke="#323232" stroke-width="2.0" stroke-dasharray="none" opacity="1.0" fill="#ffffff"/><g id="ProcessOnG1019" transform="matrix(1.0,0.0,0.0,1.0,10.0,26.875)"><text id="ProcessOnText1020" fill="#000000" font-size="13" x="39.0" y="13.325" font-family="微软雅黑" font-weight="normal" font-style="normal" text-decoration="none" family="微软雅黑" text-anchor="middle" size="13">第四代计算机</text></g></g><g id="ProcessOnG1021" transform="matrix(1.0,0.0,0.0,1.0,348.0,176.0)" opacity="1.0"><path id="ProcessOnPath1022" d="M0.0 0.0L100.0 0.0L100.0 70.0L0.0 70.0Z" stroke="#323232" stroke-width="2.0" stroke-dasharray="none" opacity="1.0" fill="#ffffff"/><g id="ProcessOnG1023" transform="matrix(1.0,0.0,0.0,1.0,10.0,26.875)"><text id="ProcessOnText1024" fill="#000000" font-size="13" x="39.0" y="13.325" font-family="微软雅黑" font-weight="normal" font-style="normal" text-decoration="none" family="微软雅黑" text-anchor="middle" size="13">第三代计算机</text></g></g><g id="ProcessOnG1025"><path id="ProcessOnPath1026" d="M181.0 211.0L199.5 211.0L199.5 211.0L202.7639320225002 211.0" stroke="#323232" stroke-width="2.0" stroke-dasharray="none" fill="none" marker-end="url(#ProcessOnMarker1027)"/></g><g id="ProcessOnG1029"><path id="ProcessOnPath1030" d="M318.0 211.0L333.0 211.0L333.0 211.0L334.0 211.0" stroke="#323232" stroke-width="2.0" stroke-dasharray="none" fill="none" marker-end="url(#ProcessOnMarker1031)"/></g><g id="ProcessOnG1033"><path id="ProcessOnPath1034" d="M448.0 211.0L460.5 211.0L460.5 211.0L461.5 211.0" stroke="#323232" stroke-width="2.0" stroke-dasharray="none" fill="none" marker-end="url(#ProcessOnMarker1035)"/></g><g id="ProcessOnG1037"><path id="ProcessOnPath1038" d="M573.0 211.0L589.0 211.0L589.0 211.0L589.7639320225002 211.0" stroke="#323232" stroke-width="2.0" stroke-dasharray="none" fill="none" marker-end="url(#ProcessOnMarker1039)"/></g><g id="ProcessOnG1041" transform="matrix(1.0,0.0,0.0,1.0,121.0,246.0)" opacity="1.0"><path id="ProcessOnPath1042" d="M10.0 0.0L20.0 10.0L13.4 10.0L13.4 34.0L6.6000000000000005 34.0L6.6000000000000005 10.0L0.0 10.0L10.0 0.0Z" stroke="#323232" stroke-width="2.0" stroke-dasharray="none" opacity="1.0" fill="#ffffff"/></g><g id="ProcessOnG1043" transform="matrix(1.0,0.0,0.0,1.0,645.0,246.0)" opacity="1.0"><path id="ProcessOnPath1044" d="M10.0 0.0L20.0 10.0L13.4 10.0L13.4 34.0L6.6000000000000005 34.0L6.6000000000000005 10.0L0.0 10.0L10.0 0.0Z" stroke="#323232" stroke-width="2.0" stroke-dasharray="none" opacity="1.0" fill="#ffffff"/></g><g id="ProcessOnG1045" transform="matrix(1.0,0.0,0.0,1.0,388.0,246.0)" opacity="1.0"><path id="ProcessOnPath1046" d="M10.0 0.0L20.0 10.0L13.4 10.0L13.4 34.0L6.6000000000000005 34.0L6.6000000000000005 10.0L0.0 10.0L10.0 0.0Z" stroke="#323232" stroke-width="2.0" stroke-dasharray="none" opacity="1.0" fill="#ffffff"/></g><g id="ProcessOnG1047" transform="matrix(1.0,0.0,0.0,1.0,513.0,246.0)" opacity="1.0"><path id="ProcessOnPath1048" d="M10.0 0.0L20.0 10.0L13.4 10.0L13.4 34.0L6.6000000000000005 34.0L6.6000000000000005 10.0L0.0 10.0L10.0 0.0Z" stroke="#323232" stroke-width="2.0" stroke-dasharray="none" opacity="1.0" fill="#ffffff"/></g><g id="ProcessOnG1049" transform="matrix(1.0,0.0,0.0,1.0,258.0,246.0)" opacity="1.0"><path id="ProcessOnPath1050" d="M10.0 0.0L20.0 10.0L13.4 10.0L13.4 34.0L6.6000000000000005 34.0L6.6000000000000005 10.0L0.0 10.0L10.0 0.0Z" stroke="#323232" stroke-width="2.0" stroke-dasharray="none" opacity="1.0" fill="#ffffff"/></g><g id="ProcessOnG1051" transform="matrix(1.0,0.0,0.0,1.0,81.0,280.0)" opacity="1.0"><path id="ProcessOnPath1052" d="M0.0 0.0L100.0 0.0L100.0 37.0L0.0 37.0Z" stroke="#323232" stroke-width="2.0" stroke-dasharray="none" opacity="1.0" fill="#ffffff"/><g id="ProcessOnG1053" transform="matrix(1.0,0.0,0.0,1.0,10.0,2.25)"><text id="ProcessOnText1054" fill="#000000" font-size="13" x="39.0" y="13.325" font-family="微软雅黑" font-weight="normal" font-style="normal" text-decoration="none" family="微软雅黑" text-anchor="middle" size="13">电子管</text><text id="ProcessOnText1055" fill="#000000" font-size="13" x="39.0" y="29.575" font-family="微软雅黑" font-weight="normal" font-style="normal" text-decoration="none" family="微软雅黑" text-anchor="middle" size="13">机器语言</text></g></g><g id="ProcessOnG1056" transform="matrix(1.0,0.0,0.0,1.0,205.0,280.0)" opacity="1.0"><path id="ProcessOnPath1057" d="M0.0 0.0L113.0 0.0L113.0 37.0L0.0 37.0Z" stroke="#323232" stroke-width="2.0" stroke-dasharray="none" opacity="1.0" fill="#ffffff"/><g id="ProcessOnG1058" transform="matrix(1.0,0.0,0.0,1.0,10.0,2.25)"><text id="ProcessOnText1059" fill="#000000" font-size="13" x="45.5" y="13.325" font-family="微软雅黑" font-weight="normal" font-style="normal" text-decoration="none" family="微软雅黑" text-anchor="middle" size="13">晶体管</text><text id="ProcessOnText1060" fill="#000000" font-size="13" x="45.5" y="29.575" font-family="微软雅黑" font-weight="normal" font-style="normal" text-decoration="none" family="微软雅黑" text-anchor="middle" size="13">计算机高级语言</text></g></g><g id="ProcessOnG1061" transform="matrix(1.0,0.0,0.0,1.0,605.0,280.0)" opacity="1.0"><path id="ProcessOnPath1062" d="M0.0 0.0L138.0 0.0L138.0 44.0L0.0 44.0Z" stroke="#323232" stroke-width="2.0" stroke-dasharray="none" opacity="1.0" fill="#ffffff"/><g id="ProcessOnG1063" transform="matrix(1.0,0.0,0.0,1.0,10.0,5.75)"><text id="ProcessOnText1064" fill="#000000" font-size="13" x="58.0" y="13.325" font-family="微软雅黑" font-weight="normal" font-style="normal" text-decoration="none" family="微软雅黑" text-anchor="middle" size="13">甚大规模集成电路</text><text id="ProcessOnText1065" fill="#000000" font-size="13" x="58.0" y="29.575" font-family="微软雅黑" font-weight="normal" font-style="normal" text-decoration="none" family="微软雅黑" text-anchor="middle" size="13">ULSI</text></g></g><g id="ProcessOnG1066" transform="matrix(1.0,0.0,0.0,1.0,469.0,280.0)" opacity="1.0"><path id="ProcessOnPath1067" d="M0.0 0.0L128.0 0.0L128.0 50.0L0.0 50.0Z" stroke="#323232" stroke-width="2.0" stroke-dasharray="none" opacity="1.0" fill="#ffffff"/><g id="ProcessOnG1068" transform="matrix(1.0,0.0,0.0,1.0,10.0,0.625)"><text id="ProcessOnText1069" fill="#000000" font-size="13" x="53.0" y="13.325" font-family="微软雅黑" font-weight="normal" font-style="normal" text-decoration="none" family="微软雅黑" text-anchor="middle" size="13">大,超大规模集成</text><text id="ProcessOnText1070" fill="#000000" font-size="13" x="53.0" y="29.575" font-family="微软雅黑" font-weight="normal" font-style="normal" text-decoration="none" family="微软雅黑" text-anchor="middle" size="13">电路</text><text id="ProcessOnText1071" fill="#000000" font-size="13" x="53.0" y="45.825" font-family="微软雅黑" font-weight="normal" font-style="normal" text-decoration="none" family="微软雅黑" text-anchor="middle" size="13">LSI,VLSI</text></g></g><g id="ProcessOnG1072" transform="matrix(1.0,0.0,0.0,1.0,333.0,280.0)" opacity="1.0"><path id="ProcessOnPath1073" d="M0.0 0.0L130.0 0.0L130.0 50.0L0.0 50.0Z" stroke="#323232" stroke-width="2.0" stroke-dasharray="none" opacity="1.0" fill="#ffffff"/><g id="ProcessOnG1074" transform="matrix(1.0,0.0,0.0,1.0,10.0,8.75)"><text id="ProcessOnText1075" fill="#000000" font-size="13" x="54.0" y="13.325" font-family="微软雅黑" font-weight="normal" font-style="normal" text-decoration="none" family="微软雅黑" text-anchor="middle" size="13">中小规模继承电路</text><text id="ProcessOnText1076" fill="#000000" font-size="13" x="54.0" y="29.575" font-family="微软雅黑" font-weight="normal" font-style="normal" text-decoration="none" family="微软雅黑" text-anchor="middle" size="13">MSI,SSI</text></g></g><g id="ProcessOnG1077" transform="matrix(1.0,0.0,0.0,1.0,321.0,354.0)" opacity="1.0"><path id="ProcessOnPath1078" d="M0.0 0.0L160.0 0.0L160.0 40.0L0.0 40.0Z" stroke="none" stroke-width="0.0" stroke-dasharray="none" opacity="1.0" fill="none"/><g id="ProcessOnG1079" transform="matrix(1.0,0.0,0.0,1.0,0.0,8.75)"><text id="ProcessOnText1080" fill="#000000" font-size="18" x="79.0" y="18.45" font-family="微软雅黑" font-weight="bold" font-style="italic" text-decoration="none" family="微软雅黑" text-anchor="middle" size="18">计算机发展历史</text></g></g></g></g></svg>